<?xml version="1.0" encoding="utf-8"?>
<!-- Generator: Adobe Illustrator 17.0.0, SVG Export Plug-In . SVG Version: 6.00 Build 0)  -->
<!DOCTYPE svg PUBLIC "-//W3C//DTD SVG 1.1//EN" "http://www.w3.org/Graphics/SVG/1.1/DTD/svg11.dtd">
<svg version="1.1" id="Capa_1" xmlns="http://www.w3.org/2000/svg" xmlns:xlink="http://www.w3.org/1999/xlink" x="0px" y="0px"
	 width="92px" height="60px" viewBox="-32 0 92 60" enable-background="new -32 0 92 60" xml:space="preserve">
<path fill="#FFFFFF" stroke="#333333" stroke-linecap="round" stroke-linejoin="round" stroke-miterlimit="10" d="M58.075,10.399
	c0-4.814-10-8.707-22.321-8.707H17.14c-4.107,0-7.44,1.293-7.44,2.907v50.802c0,1.6,3.333,2.907,7.44,2.907h18.614
	c12.321,0,22.321-3.907,22.321-8.72V10.399z"/>
<path fill="#FFFFFF" stroke="#333333" stroke-linecap="round" stroke-linejoin="round" stroke-miterlimit="10" d="M17.7,10.399
	c0-4.814-4.178-8.707-12.321-8.707h-15.614c-4.107,0-7.44,5.293-7.44,6.907v41.802c0,1.6,3.333,7.907,7.44,7.907H5.379
	c12.321,0,12.321-3.907,12.321-8.72V10.399z"/>
<path fill="#FFFFFF" stroke="#333333" stroke-linecap="round" stroke-linejoin="round" stroke-miterlimit="10" d="M41.904,8.679
	h-65.028c-4.08,0-7.387,4.774-7.387,10.667v21.308c0,5.894,3.307,10.667,7.387,10.667h65.028V8.679z"/>
<line opacity="0.5" fill="none" stroke="#333333" stroke-linecap="round" stroke-linejoin="round" stroke-miterlimit="10" x1="-11" y1="12.5" x2="-11" y2="47.5"/>
<line opacity="0.5" fill="none" stroke="#333333" stroke-linecap="round" stroke-linejoin="round" stroke-miterlimit="10" x1="17.7" y1="12.5" x2="17.7" y2="47.5"/>
</svg>
