<svg id="Capa_1" data-name="Capa 1" xmlns="http://www.w3.org/2000/svg" viewBox="0 0 30 40"><title>bus_bus</title><path d="M3.83,32.71H18.91v6.13H3.83a2.87,2.87,0,0,1-3-2.72h0v-.69a2.87,2.87,0,0,1,3-2.72Z" style="fill:none;stroke:#333;stroke-miterlimit:10;stroke-width:1.05413060243442px"/><path d="M3.83,1.37H18.91V8H3.83A3,3,0,0,1,.83,5h0V4.29A3,3,0,0,1,3.83,1.37Z" style="fill:none;stroke:#333;stroke-miterlimit:10;stroke-width:1.0935577069653983px"/><path d="M6.6,8.37H18.91v23.9H6.6c-3.13,0-5.68-3.09-5.7-7t0-.06V15.37c0-3.87,2.54-7,5.66-7Z" style="fill:none;stroke:#333;stroke-miterlimit:10;stroke-width:1.3554602459269365px"/><path d="M19.33,1.46h3.76a6.14,6.14,0,0,1,6.26,6V32.74a6.14,6.14,0,0,1-6.26,6H19.33V1.46Z" style="fill:none;stroke:#333;stroke-miterlimit:10;stroke-width:1.2255064085198726px"/></svg>