<svg id="Capa_1" data-name="Capa 1" xmlns="http://www.w3.org/2000/svg" viewBox="0 0 1344.5 485"><title>ebus_logo</title><path d="M59,359c0,3,24,28,37,39,2,2,6,3,10,4,18,2,39,3,58,5l104-1c7-2,13-4,20-8,28-19,60-43,89-65h3v7c-8,30,5,77-29,84-17,3-50,6-53,6H168a23.88,23.88,0,0,0-9-2H143L64,418c6,31,40,25,59,29l42,1c4,1,9,1,13,2l111,3,60-2c13-1,41-3,41-6,0,6-19,28-25,33-7,6-19,5-25,7l-166-1a115.48,115.48,0,0,0-16-2H127c-36-3-84-35-83-74l2-75C67,338,59,349,59,359ZM600,135l12,93c11,0,30,3,33,3h22l100,9c2-16,5-33,6-49h3c2,0,2,2,2,4,2,15,5,31,7,48h18c9,1,17,2,25,3a201.08,201.08,0,0,0,27,0c2,0,4,2,7,2h19c2,1,4,1,5,2-1,2-3,4-5,4-5,1-13,1-15,1l-70-2c-7-1-14-1-21-2l-143-1c-19,2-33,4-46,13-13,8-34,27-48,32,12-20,32-41,49-61a87.52,87.52,0,0,1,2-16c-1-7,1-14,1-21,2-20,4-41,5-62ZM81,105c-1,3-2,7-4,9-8,2-25,4-32,17-6,11-9,28-12,40-2,8-2,19-7,26-2,3-7,3-10,3-9,0-16-4-16-14,0-2,2-15,4-23,7-26,20-52,49-58ZM479,11l235,99c15,10,34,17,52,24,24,11,52,21,78,33,28,14,64,19,81,43a3.49,3.49,0,0,0-1,2h-4c-44-17-90-34-134-51-22-9-49-18-72-27-29-11-60-23-87-33-21-8-43-16-63-24-4-2-65-25-76-25-20,0-26,29-30,39-4,9-7,21-10,31-19,58-30,118-41,177h-4V285l15-128a30.79,30.79,0,0,0,3-13c1-5,3-10,3-15l18-84c4-13,5-37,21-37C466,8,474,10,479,11ZM434,0c-6,21-12,42-17,63,0,3-2,5-3,9q-10.5,46.5-18,96c-7,45-12,93-18,138-9,5-20,9-31,12-8,3-75,17-93,17H235a42.53,42.53,0,0,1-11,2H157a42.53,42.53,0,0,0-11-2H127c-29-6-57-3-81-19V285c5-50,11-105,29-154,1,1,1,1,1,4L66,218v53c2,9,4,24,19,31,5,3,13,5,20,6,10,2,23,2,35,3,1,1,0,2,3,2,2,0,3-2,5-2,3,0,25,1,27,1,10,1,20,0,58,0,2,0,5-2,8-2a421.24,421.24,0,0,0,69-9c11-3,27-5,41-11,11-5,15-24,16-33l3-24c1-7,2-15,3-22s2-15,3-22c0-3,9-51,9-62,0-3,3-7,3-11,4-19,7-38,12-57-1-1,0-2-3-2-14,0-37,2-43,18-8,18-7,42-9,61-1,5,1,13-2,20-4,9-19,11-26,11-10,0-19-3-19-15,0-3,4-23,6-35,3-8,4-16,6-24a153.85,153.85,0,0,0,8-19c16-41,56-26,82-32-5-11-20-10-27-10l-62,3c-49,5-95,8-143,18-19,4-39,9-59,14l-1-1c27-39,83-42,118-50a217.61,217.61,0,0,1,29-5c25-3,76-8,79-8h19c10-2,19-2,28-3Z" style="fill:#fff;fill-rule:evenodd"/><path d="M954.78,445a8.33,8.33,0,0,1-5.54,2.32H918l3.94-14.85h31.29c2.81.5,4.24,2.92,4.24,7.26A7,7,0,0,1,954.78,445ZM889,392.17,862,485.3l111.22.2a63,63,0,0,0,25.39-13.39q14.91-12.63,16.11-32.71c.07-2.19.1-3.58.1-4.11q0-8-2.39-13.13c-.26-.53-2.35-4.07-6.26-10.67q15.81-6.12,15.81-19.32Zm134.63-18.63q0-28-26.65-28l-90.58.1-29.33,33.84h146.26C1023.55,377.38,1023.65,375.4,1023.65,373.54Z" style="fill:#fff;fill-rule:evenodd"/><path d="M1124.73,392.43l-17.2,59.13H1075c-2.72-.76-4.08-2.49-4.08-5.14a19.82,19.82,0,0,1,1-4.9l14.41-49.19-45.24.1-15,54.49a23.48,23.48,0,0,0-.8,6.26,30.68,30.68,0,0,0,2.29,11.34q8.36,21,43.35,21h74.47l25.75-93.07Zm-71.09-46.93L1044,379.44h45.93l9.25-33.94Zm83.72,0-9.45,33.94h46.54l9.44-33.84Z" style="fill:#fff;fill-rule:evenodd"/><path d="M1326.5,433.07a61.39,61.39,0,0,0-3.77-22.24c-6.8-7.56-10.44-11.6-11-12.07-3.85-2.91-11.27-5.14-22.21-6.59h-89.62q-.5,0,0,7c0,9.54,2,16.44,6,20.65s10.21,6.33,18.69,6.33h39.21c3.48,1.19,5.67,2.51,6.53,4q1,1.69,1,7,0,9.15-9.91,10.28l-76.85-.7-10.81,38.58,110.8.3c11.27-3.18,19.69-7.52,25.19-13.06q14.71-14.82,16.34-31.12Q1326.5,437.24,1326.5,433.07Zm-82-87.57q-13.34,0-25.86,11.37-11.13,10.14-15.21,22.57h132l9-33.94Z" style="fill:#fff;fill-rule:evenodd"/><path d="M422.86,392.43,397.5,485.5h46.36l23.58-83.62L497.16,429,481.51,485.5h50.92l24.66-93.07Zm97-46.93-7.24,28.14-30-28.14H436.53l-9.61,33.94h133l10-33.94Z" style="fill:#ff7f00;fill-rule:evenodd"/><path d="M582.88,392.17,558.12,485.5H677.2l9.8-36.06H621.52L627,428.23h65.78l9.81-36.06Zm13.48-46.67-21.8,33.94H706.72l9-33.94Z" style="fill:#ff7f00;fill-rule:evenodd"/><path d="M769,392.43,743.87,485.5h46.36l24.67-93.07ZM744.46,345.5,723,379.44H858.09l9.41-33.94Z" style="fill:#ff7f00;fill-rule:evenodd"/></svg>