<?xml version="1.0" encoding="utf-8"?>
<!-- Generator: Adobe Illustrator 17.0.0, SVG Export Plug-In . SVG Version: 6.00 Build 0)  -->
<!DOCTYPE svg PUBLIC "-//W3C//DTD SVG 1.1//EN" "http://www.w3.org/Graphics/SVG/1.1/DTD/svg11.dtd">
<svg version="1.1" id="Capa_1" xmlns="http://www.w3.org/2000/svg" xmlns:xlink="http://www.w3.org/1999/xlink" x="0px" y="0px"
	 width="47.583px" height="31.25px" viewBox="0 0 47.583 31.25" enable-background="new 0 0 47.583 31.25" xml:space="preserve">
	<style xmlns="http://www.w3.org/2000/svg" type="text/css">
	#linea_carga{
		animation: cargar-linea 6s ease-in-out infinite;
		stroke-dasharray: 50;
		stroke-dashoffset: 500;
	}
	#letra_e_ebus{
		animation: cargar-letra-e 6s ease-in-out infinite;
	}
	#letra_b_ebus{
		animation: cargar-letra-b 6s ease-in-out infinite;
	}
	#letra_u_ebus{
		animation: cargar-letra-u 6s ease-in-out infinite;
	}
	#letra_s_ebus{
		animation: cargar-letra-s 6s ease-in-out infinite;
	}
	@keyframes cargar-letra-s {
		0% {
			opacity: 1;
		}
		59% {
			opacity: 1;
		}
		60% {
			opacity: 0;
		}
		61% {
			opacity: 1;
		}
		62% {
			opacity: 0;
		}
		63% {
			opacity: 1;
		}
		64% {
			opacity: 0;
		}
		65% {
			opacity: 1;
		}
		100% {
			opacity: 1;
		}
	}
	@keyframes cargar-letra-u {
		0% {
			opacity: 1;
		}
		49% {
			opacity: 1;
		}
		50% {
			opacity: 0;
		}
		51% {
			opacity: 1;
		}
		52% {
			opacity: 0;
		}
		53% {
			opacity: 1;
		}
		54% {
			opacity: 0;
		}
		55% {
			opacity: 1;
		}
		100% {
			opacity: 1;
		}
	}
	@keyframes cargar-letra-b {
		0% {
			opacity: 1;
		}
		39% {
			opacity: 1;
		}
		40% {
			opacity: 0;
		}
		41% {
			opacity: 1;
		}
		42% {
			opacity: 0;
		}
		43% {
			opacity: 1;
		}
		44% {
			opacity: 0;
		}
		45% {
			opacity: 1;
		}
		100% {
			opacity: 1;
		}
	}
	@keyframes cargar-letra-e {
		0% {
			opacity: 1;
		}
		29% {
			opacity: 1;
		}
		30% {
			opacity: 0;
		}
		31% {
			opacity: 1;
		}
		32% {
			opacity: 0;
		}
		33% {
			opacity: 1;
		}
		34% {
			opacity: 0;
		}
		35% {
			opacity: 1;
		}
		100% {
			opacity: 1;
		}
	}
	@keyframes cargar-linea {
		from {
			stroke-dashoffset: 500;
		}
		to {
			stroke-dashoffset: 0;
		}
	}

	</style>
<g>
	<path fill="#FCFCFC" d="M4.007,6.832C3.972,7.183,3.949,7.483,3.91,7.781c-0.218,1.684-0.431,3.366-0.373,5.073
		c0.038,1.111,0.543,1.751,1.644,1.917c0.472,0.071,0.952,0.092,1.427,0.143c0.106,0.011,0.208,0.051,0.313,0.076
		c0.035,0.008,0.073,0.015,0.109,0.014c0.369-0.014,0.739-0.04,1.108-0.042c0.545-0.003,1.091,0.015,1.637,0.017
		c1.537,0.005,3.056-0.177,4.56-0.474c0.615-0.121,1.219-0.293,1.826-0.451c0.294-0.076,0.482-0.279,0.618-0.547
		c0.246-0.487,0.274-1.021,0.349-1.545c0.202-1.406,0.407-2.811,0.606-4.217c0.053-0.37,0.074-0.745,0.141-1.112
		c0.086-0.469,0.207-0.932,0.31-1.398c0.111-0.503,0.219-1.007,0.325-1.512c0.01-0.048,0.001-0.101,0.001-0.177
		c-0.62-0.022-1.223,0.004-1.734,0.396c-0.345,0.264-0.435,0.679-0.493,1.075c-0.09,0.613-0.131,1.233-0.185,1.851
		c-0.024,0.268-0.03,0.537-0.041,0.806c-0.012,0.288-0.14,0.5-0.405,0.621c-0.387,0.178-0.794,0.217-1.206,0.135
		c-0.346-0.069-0.529-0.33-0.477-0.7c0.071-0.51,0.154-1.021,0.267-1.523c0.144-0.64,0.347-1.262,0.592-1.875
		c0.341-0.851,0.94-1.307,1.843-1.37c0.559-0.039,1.12-0.057,1.679-0.086c0.05-0.003,0.099-0.018,0.178-0.032
		c-0.18-0.326-0.468-0.423-0.777-0.419c-0.747,0.009-1.496,0.015-2.24,0.078c-1.803,0.153-3.605,0.316-5.403,0.515
		C8.615,3.184,7.157,3.557,5.7,3.925c-0.077,0.019-0.155,0.03-0.305,0.058C5.489,3.85,5.537,3.771,5.596,3.701
		c0.579-0.7,1.339-1.133,2.196-1.364c0.922-0.249,1.866-0.416,2.797-0.632c1.339-0.309,2.706-0.409,4.068-0.522
		c1.72-0.143,3.444-0.275,5.174-0.219c0.067,0.002,0.133,0,0.231,0c-0.016,0.083-0.025,0.146-0.041,0.206
		c-0.238,0.895-0.467,1.793-0.717,2.685c-0.564,2.014-0.854,4.079-1.14,6.143c-0.212,1.526-0.388,3.056-0.589,4.583
		c-0.01,0.075-0.089,0.167-0.16,0.204c-0.671,0.345-1.393,0.542-2.128,0.681c-1.02,0.193-2.045,0.358-3.069,0.535
		c-0.029,0.005-0.059,0.008-0.089,0.008c-1.442,0.031-2.885,0.119-4.324,0.074c-1.363-0.043-2.731-0.151-4.068-0.459
		c-0.33-0.076-0.642-0.238-0.953-0.38c-0.066-0.03-0.133-0.147-0.133-0.223c0.011-2.724,0.382-5.393,1.227-7.989
		c0.014-0.043,0.03-0.085,0.047-0.126C3.93,6.896,3.944,6.889,4.007,6.832z"/>
	<path fill="#FCFCFC" d="M18.105,21.037c-0.387,0.582-0.729,1.224-1.398,1.535c-0.305,0.142-0.685,0.169-1.031,0.169
		c-2.379,0.004-4.759-0.005-7.138-0.027c-0.776-0.007-1.557-0.02-2.326-0.114c-1.348-0.164-2.441-0.808-3.234-1.924
		c-0.357-0.503-0.452-1.074-0.426-1.683c0.04-0.971,0.054-1.943,0.08-2.915c0.001-0.043,0.01-0.086,0.014-0.127
		c0.464,0.016,0.727,0.286,0.636,0.719c-0.073,0.345,0.018,0.589,0.256,0.821c0.406,0.397,0.807,0.8,1.203,1.208
		c0.205,0.212,0.458,0.303,0.739,0.333c1.594,0.167,3.191,0.235,4.794,0.19c0.643-0.018,1.287-0.032,1.93-0.017
		c0.535,0.012,1.007-0.157,1.425-0.457c1.24-0.888,2.466-1.797,3.699-2.695c0.083-0.061,0.18-0.102,0.271-0.153
		c0.022,0.016,0.044,0.031,0.066,0.047c-0.028,0.218-0.064,0.436-0.082,0.655c-0.049,0.611-0.08,1.224-0.14,1.833
		c-0.025,0.258-0.084,0.517-0.164,0.763c-0.151,0.469-0.488,0.763-0.974,0.818c-0.92,0.105-1.843,0.225-2.766,0.25
		c-1.488,0.041-2.978,0.018-4.467,0.009c-1.188-0.007-2.371-0.109-3.548-0.268c-0.673-0.091-1.347-0.171-2.048-0.259
		c0.069,0.42,0.263,0.738,0.619,0.897c0.308,0.137,0.65,0.242,0.984,0.27c0.923,0.077,1.849,0.11,2.775,0.154
		c1.492,0.071,2.984,0.161,4.478,0.198c1.091,0.027,2.184,0.006,3.274-0.038c0.782-0.032,1.562-0.137,2.342-0.21
		c0.037-0.003,0.072-0.019,0.108-0.029C18.071,21.007,18.088,21.022,18.105,21.037z"/>
	<path fill="#FCFCFC" d="M18.657,13.961c0.081-0.713,0.16-1.426,0.244-2.139c0.142-1.211,0.282-2.421,0.432-3.631
		c0.033-0.265,0.1-0.525,0.157-0.786c0.367-1.709,0.733-3.419,1.108-5.126c0.046-0.209,0.128-0.415,0.223-0.607
		c0.134-0.269,0.368-0.4,0.668-0.336c0.312,0.066,0.632,0.131,0.924,0.254c3.349,1.402,6.729,2.739,10.027,4.251
		c2.065,0.947,4.188,1.75,6.249,2.704c0.589,0.272,1.21,0.472,1.813,0.716c0.522,0.211,1.024,0.461,1.42,0.878
		c0.021,0.022,0.048,0.04,0.061,0.066c0.041,0.08,0.077,0.163,0.115,0.244c-0.106,0.001-0.224,0.031-0.317-0.003
		c-0.687-0.253-1.368-0.521-2.053-0.78c-4.437-1.679-8.872-3.362-13.312-5.033c-1.152-0.434-2.314-0.844-3.483-1.232
		c-0.645-0.214-1.064-0.044-1.338,0.582c-0.317,0.722-0.567,1.476-0.814,2.227c-0.849,2.584-1.375,5.245-1.86,7.915
		c-0.009,0.051-0.01,0.11-0.036,0.152c-0.029,0.047-0.082,0.078-0.124,0.116c-0.026-0.045-0.07-0.088-0.075-0.136
		c-0.012-0.096-0.004-0.194-0.004-0.291C18.673,13.963,18.665,13.962,18.657,13.961z"/>
	<path fill="#FCFCFC" d="M27.303,7.055c0.168-0.061,0.236-0.023,0.259,0.168c0.155,1.269,0.325,2.536,0.485,3.805
		c0.016,0.128,0.059,0.172,0.193,0.182c1.73,0.123,3.459,0.252,5.188,0.384c0.521,0.04,1.041,0.094,1.599,0.145
		c0.095-0.73,0.188-1.444,0.283-2.174c0.131-0.049,0.202-0.017,0.225,0.15c0.089,0.659,0.19,1.317,0.283,1.975
		c0.014,0.101,0.02,0.184,0.161,0.191c0.82,0.045,1.64,0.101,2.46,0.147c0.557,0.031,1.114,0.049,1.671,0.08
		c0.085,0.005,0.168,0.043,0.257,0.066c-0.061,0.206-0.216,0.223-0.365,0.223c-0.688,0.001-1.376,0.007-2.063-0.014
		c-1.33-0.039-2.659-0.114-3.988-0.139c-1.623-0.031-3.247-0.036-4.87-0.031c-0.932,0.003-1.799,0.231-2.554,0.823
		c-0.47,0.369-0.973,0.694-1.464,1.035c-0.078,0.054-0.169,0.088-0.292,0.099c0.067-0.107,0.124-0.222,0.203-0.319
		c0.528-0.65,1.032-1.322,1.601-1.935c0.319-0.344,0.411-0.721,0.445-1.148c0.065-0.827,0.132-1.654,0.196-2.481
		C27.246,7.877,27.273,7.468,27.303,7.055z"/>
	<g id="letra_b_ebus">
		<path fill="#FCFCFC" d="M25.278,22.355c0.164-0.57,0.323-1.129,0.485-1.687c0.222-0.767,0.449-1.533,0.666-2.302
			c0.04-0.142,0.093-0.204,0.256-0.203c1.863,0.007,3.725,0.004,5.588,0.005c0.058,0,0.116,0.009,0.193,0.015
			c-0.001,0.475-0.315,0.689-0.632,0.843c0.107,0.334,0.265,0.647,0.301,0.974c0.119,1.086-0.736,2.175-1.813,2.362
			c-0.044,0.008-0.089,0.006-0.134,0.006c-1.586,0-3.172,0-4.757,0C25.386,22.366,25.343,22.36,25.278,22.355z M27.81,20.649
			c0.481,0,0.936,0.004,1.39-0.004c0.076-0.001,0.16-0.045,0.224-0.091c0.134-0.099,0.171-0.235,0.117-0.398
			c-0.051-0.153-0.165-0.171-0.302-0.17c-0.366,0.003-0.733-0.003-1.099,0.005c-0.061,0.001-0.159,0.038-0.174,0.081
			C27.901,20.251,27.863,20.441,27.81,20.649z"/>
		<path fill="#FCFCFC" d="M25.963,17.59c0.434-0.502,0.841-0.978,1.257-1.447c0.04-0.045,0.132-0.062,0.2-0.063
			c1.347-0.004,2.693-0.006,4.04-0.001c0.592,0.002,0.973,0.331,1.062,0.917c0.028,0.189,0.004,0.385,0.004,0.594
			C30.352,17.59,28.18,17.59,25.963,17.59z"/>
	</g>
	<g id="letra_e_ebus">
		<path fill="#FF8000" d="M24.394,20.764c-0.142,0.52-0.271,1.008-0.416,1.491c-0.014,0.047-0.127,0.089-0.195,0.09
			c-0.501,0.008-1.002,0.004-1.504,0.004c-1.115,0-2.229,0-3.344,0c-0.081,0-0.163,0-0.285,0c0.056-0.22,0.104-0.418,0.156-0.615
			c0.297-1.117,0.598-2.232,0.89-3.35c0.035-0.135,0.094-0.182,0.229-0.181c1.661,0.003,3.322,0.002,4.983,0.003
			c0.043,0,0.086,0.01,0.153,0.018c-0.009,0.067-0.01,0.124-0.024,0.177c-0.099,0.375-0.207,0.748-0.299,1.124
			c-0.042,0.173-0.122,0.24-0.309,0.238c-0.815-0.01-1.631,0.002-2.446-0.009c-0.209-0.003-0.315,0.056-0.351,0.27
			c-0.041,0.238-0.113,0.472-0.18,0.741C22.448,20.764,23.402,20.764,24.394,20.764z"/>
		<path fill="#FF8000" d="M25.683,16.114c-0.124,0.468-0.236,0.923-0.371,1.37c-0.016,0.053-0.154,0.098-0.236,0.099
			c-1.107,0.006-2.214,0.004-3.321,0.004c-0.769,0-1.539,0-2.354,0c0.082-0.135,0.144-0.24,0.21-0.343
			c0.214-0.334,0.421-0.672,0.649-0.996c0.053-0.075,0.174-0.145,0.265-0.146c1.661-0.009,3.321-0.006,4.982-0.006
			C25.556,16.098,25.606,16.107,25.683,16.114z"/>
	</g>
	<g id="letra_s_ebus">
		<path fill="#FCFCFC" d="M39.28,22.359c0.161-0.576,0.311-1.122,0.471-1.664c0.011-0.039,0.102-0.077,0.156-0.077
			c1.002,0.007,2.005,0.019,3.007,0.03c0.097,0.001,0.195,0.01,0.291-0.001c0.322-0.036,0.476-0.213,0.463-0.52
			c-0.013-0.301-0.155-0.415-0.511-0.419c-0.621-0.007-1.243,0.009-1.861-0.035c-0.491-0.034-0.746-0.322-0.809-0.811
			c-0.029-0.221-0.035-0.444-0.054-0.696c0.107,0,0.188,0,0.269,0c1.197,0,2.395-0.008,3.592,0.006
			c0.28,0.003,0.575,0.039,0.836,0.135c0.567,0.207,0.903,0.624,0.991,1.237c0.14,0.976-0.124,1.798-0.922,2.402
			c-0.367,0.278-0.787,0.431-1.27,0.426c-1.467-0.018-2.933-0.011-4.4-0.013C39.456,22.359,39.383,22.359,39.28,22.359z"/>
		<path fill="#FCFCFC" d="M46.958,16.092c-0.137,0.512-0.27,1.008-0.403,1.507c-1.983,0-3.949,0-5.916,0
			c0.128-0.7,1.046-1.514,1.734-1.518c1.496-0.008,2.992-0.002,4.488-0.002C46.885,16.079,46.907,16.085,46.958,16.092z"/>
	</g>
	<path fill="#FFFFFF" d="M4.203,5.68C4.172,5.979,4.047,6.123,3.777,6.157C3.602,6.178,3.43,6.244,3.263,6.308
		C2.912,6.443,2.628,6.673,2.525,7.039C2.317,7.778,2.142,8.526,1.954,9.271c-0.009,0.036-0.01,0.074-0.019,0.11
		c-0.13,0.539-0.407,0.695-0.944,0.531c-0.26-0.079-0.43-0.267-0.406-0.549C0.681,8.241,0.959,7.177,1.756,6.33
		c0.414-0.439,0.93-0.691,1.561-0.653C3.605,5.695,3.896,5.68,4.203,5.68z"/>
	<g id="letra_u_ebus">
		<path fill="#FCFCFC" d="M36.304,20.84c0.261-0.895,0.516-1.769,0.773-2.648c0.696,0,1.382,0,2.098,0
			c-0.387,1.401-0.77,2.785-1.143,4.131c-1.362,0-2.693,0.036-4.021-0.014c-0.735-0.027-1.216-0.469-1.352-1.08
			c-0.043-0.191-0.051-0.409-0.004-0.596c0.192-0.767,0.41-1.529,0.627-2.29c0.018-0.064,0.107-0.152,0.164-0.153
			c0.627-0.011,1.255-0.007,1.916-0.007c-0.055,0.195-0.104,0.37-0.155,0.544c-0.163,0.559-0.33,1.117-0.491,1.676
			c-0.097,0.336-0.017,0.436,0.335,0.437C35.463,20.84,35.874,20.84,36.304,20.84z"/>
		<path fill="#FCFCFC" d="M37.22,17.606c0.137-0.494,0.262-0.955,0.397-1.413c0.014-0.047,0.087-0.109,0.133-0.109
			c0.657-0.007,1.313-0.005,1.998-0.005c-0.139,0.501-0.268,0.976-0.407,1.447c-0.011,0.037-0.089,0.076-0.136,0.076
			C38.554,17.607,37.904,17.606,37.22,17.606z"/>
		<path fill="#FCFCFC" d="M35.935,16.104c-0.133,0.493-0.267,0.987-0.404,1.49c-0.685,0-1.362,0-2.075,0
			c0.08-0.283,0.156-0.557,0.236-0.831c0.064-0.221,0.069-0.53,0.217-0.638c0.159-0.115,0.456-0.044,0.692-0.046
			c0.425-0.003,0.851,0.001,1.276,0.002C35.891,16.082,35.904,16.092,35.935,16.104z"/>
	</g>
</g>
<path fill="#B5B5B5" stroke="#898989" stroke-width="0.2" stroke-miterlimit="10" d="M2.353,28.531
	c-0.556,0-1.006-0.514-1.007-1.149c-0.001-0.636,0.449-1.153,1.006-1.154l42.876-0.072c0.001,0,0.002,0,0.002,0
	c0.556,0,1.006,0.514,1.007,1.149c0.001,0.636-0.449,1.153-1.005,1.154L2.355,28.531C2.354,28.531,2.354,28.531,2.353,28.531z"/>
<line id="linea_carga" fill="none" stroke="#FF8000" stroke-width="2" stroke-linecap="round" stroke-miterlimit="10" x1="2.502" y1="27.375" x2="45.08" y2="27.313"/>
</svg>
