<svg id="Capa_1" data-name="Capa 1" xmlns="http://www.w3.org/2000/svg" viewBox="0 0 40 40"><title>final</title><path d="M5.66,1.53H25.16V9.67H5.66A3.76,3.76,0,0,1,1.77,6.06h0V5.15A3.76,3.76,0,0,1,5.66,1.53Z" style="fill:none;stroke:#333;stroke-miterlimit:10;stroke-width:1.3825627491074375px"/><path d="M5.66,30.42H25.16v8.27H5.66A3.78,3.78,0,0,1,1.77,35h0v-.93a3.78,3.78,0,0,1,3.88-3.67Z" style="fill:none;stroke:#333;stroke-miterlimit:10;stroke-width:1.3931229641216112px"/><path d="M9.24,10.72H25.16V29.36H9.24c-4,0-7.35-2.41-7.38-5.42t0,0V16.18c0-3,3.28-5.46,7.33-5.46Z" style="fill:none;stroke:#333;stroke-miterlimit:10;stroke-width:1.3617505912811072px"/><path d="M26,1.52h4.62c4.25,0,7.69,2.68,7.69,6V32.65c0,3.31-3.44,6-7.69,6H26V1.52Z" style="fill:none;stroke:#333;stroke-miterlimit:10;stroke-width:1.35496152022653px"/></svg>