<?xml version="1.0" encoding="utf-8"?>
<!-- Generator: Adobe Illustrator 17.0.0, SVG Export Plug-In . SVG Version: 6.00 Build 0)  -->
<!DOCTYPE svg PUBLIC "-//W3C//DTD SVG 1.1//EN" "http://www.w3.org/Graphics/SVG/1.1/DTD/svg11.dtd">
<svg version="1.1" id="Capa_1" xmlns="http://www.w3.org/2000/svg" xmlns:xlink="http://www.w3.org/1999/xlink" x="0px" y="0px"
	 width="60px" height="30px" viewBox="0 15 60 30" enable-background="new 0 15 60 30" xml:space="preserve">
<title>v_bano</title>
<rect x="0" y="15" fill="#A47103" width="60" height="30"/>
<path fill-rule="evenodd" clip-rule="evenodd" fill="#FFFFFF" d="M16.288,23.236c0.486,0,0.85,0.608,0.891,0.931
	c0.161,0.809,1.538,4.978,1.538,5.504c0,0.567-0.445,1.093-1.012,1.093c-1.295,0-1.214-2.064-1.457-2.428
	c-0.04,0.041-0.04,0.081-0.04,0.081l0.971,4.776c0.121,0.486-0.688,1.174-1.133,1.011v4.614c-0.162,0.567-0.607,0.89-1.052,0.89
	c-0.526,0-1.011-0.445-1.011-0.971l-0.041-4.533h-0.202v4.493c-0.121,0.648-0.567,1.011-1.052,1.011
	c-0.405,0-1.011-0.364-1.011-0.89v-4.614c-0.486,0.162-1.295-0.526-1.133-1.011l0.971-4.816h-0.081
	c-0.405,0.809-0.202,2.387-1.417,2.387c-0.728,0-1.011-0.607-1.011-1.093c0-0.445,0.121-0.567,0.243-1.133
	c0.041-0.283,0.162-0.607,0.243-0.849c0.243-0.85,0.486-1.74,0.728-2.55c0.122-0.486,0.203-1.052,0.526-1.538
	c0.121-0.202,0.486-0.405,0.648-0.364H16.288z M15.884,21.051c0,1.174-0.971,2.024-2.024,2.024c-1.214,0-2.024-0.971-2.024-2.024
	c0-1.093,0.81-2.024,2.024-2.024C15.034,19.028,15.884,19.958,15.884,21.051z"/>
<path fill-rule="evenodd" clip-rule="evenodd" fill="#FFFFFF" d="M48.989,23.236c0.648-0.04,0.891,0.891,0.972,1.376
	c0.202,1.659,0.93,4.937,0.93,5.018c0,0.607-0.445,1.133-1.011,1.133c-1.336,0-1.093-1.618-1.255-2.226
	c-0.202-0.769-0.202-1.538-0.364-2.307L48.22,38.778c-0.04,0.647-0.688,0.93-1.052,0.93c-0.526,0-1.012-0.445-1.012-0.971
	l-0.04-6.394h-0.202v6.354c-0.122,0.648-0.567,1.011-1.052,1.011c-0.445,0-1.052-0.364-1.012-0.93l-0.04-12.547
	c-0.162,0.769-0.283,1.538-0.405,2.307c-0.121,0.729-0.121,2.226-1.214,2.226c-0.729,0-1.012-0.607-1.012-1.133
	c0-0.081,0.202-1.174,0.283-1.781c0.081-0.405,0.162-0.85,0.243-1.295c0.04-0.202,0.121-0.445,0.121-0.648
	c0.364-0.85-0.121-2.266,1.214-2.671H48.989z M48.058,21.051c0,1.174-0.971,2.024-2.024,2.024c-1.214,0-2.024-0.971-2.024-2.024
	c0-1.093,0.809-2.024,2.024-2.024C47.208,19.028,48.058,19.958,48.058,21.051z"/>
<g>
	<path fill-rule="evenodd" clip-rule="evenodd" fill="#FFFFFF" d="M28.179,19.918c0-0.503,0.408-0.911,0.911-0.911
		S30,19.415,30,19.918v18.9c0,0.503-0.408,0.911-0.911,0.911s-0.911-0.408-0.911-0.911V19.918z"/>
</g>
</svg>
