<?xml version="1.0" encoding="utf-8"?>
<!-- Generator: Adobe Illustrator 17.0.0, SVG Export Plug-In . SVG Version: 6.00 Build 0)  -->
<!DOCTYPE svg PUBLIC "-//W3C//DTD SVG 1.1//EN" "http://www.w3.org/Graphics/SVG/1.1/DTD/svg11.dtd">
<svg version="1.1" id="Capa_1" xmlns="http://www.w3.org/2000/svg" xmlns:xlink="http://www.w3.org/1999/xlink" x="0px" y="0px"
	 width="30px" height="20.417px" viewBox="0 0 30 20.417" enable-background="new 0 0 30 20.417" xml:space="preserve">
<title>v_bano</title>
<g>
	<g>
		
			<path fill-rule="evenodd" clip-rule="evenodd" fill="#FFFFFF" stroke="#333333" stroke-linecap="round" stroke-linejoin="round" stroke-miterlimit="10" d="
			M0.875,2.406c0-1.175,0.568-1.74,1.754-1.74h24.867c1.187,0,1.754,0.565,1.754,1.74v11.7c0,1.175-0.567,1.737-1.754,1.737H2.629
			c-1.187,0-1.754-0.562-1.754-1.737V2.406z"/>
	</g>
	<g>
		
			<path fill-rule="evenodd" clip-rule="evenodd" fill="#333333" stroke="#333333" stroke-linecap="round" stroke-linejoin="round" stroke-miterlimit="10" d="
			M5.338,18.583c0-0.846,0.158-1.003,1.012-1.003h17.799c0.854,0,1.009,0.158,1.009,1.003c0,0.553-0.155,1-1.009,1H6.349
			C5.495,19.583,5.338,19.136,5.338,18.583z"/>
	</g>
</g>
</svg>
